<svg width="270" height="213" viewBox="0 0 270 213" fill="none" xmlns="http://www.w3.org/2000/svg">
<path d="M77.2897 192.498L30.4848 100.35L27.2382 75.3054L72.5138 135.186L77.2897 192.498Z" stroke="#0E0E0F"/>
<path d="M78.4454 194.819L73.5343 135.394L241.915 98.1415L236.543 140.628L78.4454 194.819Z" stroke="#0E0E0F"/>
<path d="M171.015 112.093L74.4468 132.892L65.5464 34.9877L173.981 32.512L171.015 112.093Z" stroke="#0E0E0F"/>
<path d="M60.9844 116.306L53.5496 34.5233L64.5417 34.9813L73.3505 131.878L60.9844 116.306Z" stroke="#0E0E0F"/>
<path d="M175.024 110.877L177.982 32.49L248.427 31.0121L239.551 97.0846L175.024 110.877Z" stroke="#0E0E0F"/>
<path d="M71 93L172 79.5" stroke="#0E0E0F"/>
<path d="M176 79L242.941 69.5035" stroke="#0E0E0F"/>
<path d="M70 92.5L58 82.5" stroke="#0E0E0F"/>
<path d="M176 79L172.5 78" stroke="#0E0E0F"/>
<path d="M175 111L171 109.923" stroke="#0E0E0F"/>
<path d="M239.5 97L210 88.5" stroke="#0E0E0F"/>
<path d="M243 69L212.5 62.5" stroke="#0E0E0F"/>
<path d="M210 89L211 74" stroke="#0E0E0F"/>
<path d="M212.5 63L214.12 32" stroke="#0E0E0F"/>
<path d="M210.128 88.4834L175.5 94.5" stroke="#0E0E0F"/>
<path d="M212 62.5L176.5 66" stroke="#0E0E0F"/>
<path d="M148.085 100.493L61 116" stroke="#0E0E0F"/>
<path d="M170.5 111.5L147.5 100.5" stroke="#0E0E0F"/>
<path d="M148 100.5L148 82.5" stroke="#0E0E0F"/>
<path d="M148.5 33L147.5 70" stroke="#0E0E0F"/>
<path d="M171.776 79.4472L147.5 70.5" stroke="#0E0E0F"/>
<path d="M147.5 70.5L58.0822 82.4932" stroke="#0E0E0F"/>
<path d="M30.9766 77.2988L26.6213 46.3279L55.5294 59.3365L60.8411 115.834L30.9766 77.2988Z" stroke="#0E0E0F"/>
<path d="M27.9713 73.7776L21.5844 33H24.5657L30.7731 76.9297L27.9713 73.7776Z" stroke="#0E0E0F"/>
<path d="M26.5 46L54.5 45.5" stroke="#0E0E0F"/>
<path d="M32.5 49L36.5 84.5" stroke="#0E0E0F"/>
<path d="M41 53L46 96.5" stroke="#0E0E0F"/>
<path d="M24.5 33H79.6847" stroke="#0E0E0F"/>
<path d="M79.5 32.5L79.5 35" stroke="#0E0E0F"/>
<path d="M83 33L83 35" stroke="#0E0E0F"/>
<path d="M126.5 32L126.5 33.5" stroke="#0E0E0F"/>
<path d="M82.5 33L127 32" stroke="#0E0E0F"/>
<path d="M178 32.5L174 32.5" stroke="#0E0E0F"/>
<path d="M28.5 84.5L74.424 156.735" stroke="#0E0E0F"/>
<path d="M29 89.5L76.4337 171.751" stroke="#0E0E0F"/>
<path d="M76.8744 171.516L104 163.5" stroke="#0E0E0F"/>
<line x1="75.8787" y1="156.515" x2="103.879" y2="149.515" stroke="#0E0E0F"/>
<path d="M239.5 114L225.105 117.489" stroke="#0E0E0F"/>
<path d="M238.5 124L223.158 129.474" stroke="#0E0E0F"/>
<path d="M114.846 135.626L219.655 111.114C222.698 110.403 225.522 112.933 225.147 116.035L223.507 129.629C222.919 134.496 219.542 138.57 214.868 140.049L114.201 171.906C109.525 173.385 104.71 170.052 104.449 165.155L103.668 150.517C103.294 143.501 108.004 137.226 114.846 135.626Z" stroke="#0E0E0F"/>
<path d="M142.716 142.091C142.631 141.371 142.285 140.812 141.679 140.415C141.073 140.017 140.33 139.818 139.449 139.818C138.805 139.818 138.241 139.922 137.759 140.131C137.28 140.339 136.906 140.625 136.636 140.99C136.371 141.355 136.239 141.769 136.239 142.233C136.239 142.621 136.331 142.955 136.516 143.234C136.705 143.509 136.946 143.739 137.24 143.923C137.534 144.103 137.841 144.252 138.163 144.371C138.485 144.484 138.781 144.577 139.051 144.648L140.528 145.045C140.907 145.145 141.329 145.282 141.793 145.457C142.261 145.633 142.709 145.872 143.135 146.175C143.566 146.473 143.921 146.857 144.2 147.325C144.48 147.794 144.619 148.369 144.619 149.051C144.619 149.837 144.413 150.547 144.001 151.182C143.594 151.816 142.998 152.321 142.212 152.695C141.43 153.069 140.481 153.256 139.364 153.256C138.322 153.256 137.42 153.088 136.658 152.751C135.9 152.415 135.304 151.946 134.868 151.345C134.437 150.744 134.193 150.045 134.136 149.25H135.955C136.002 149.799 136.187 150.254 136.509 150.614C136.835 150.969 137.247 151.234 137.744 151.409C138.246 151.58 138.786 151.665 139.364 151.665C140.036 151.665 140.64 151.556 141.175 151.338C141.71 151.116 142.134 150.808 142.446 150.415C142.759 150.017 142.915 149.553 142.915 149.023C142.915 148.54 142.78 148.147 142.51 147.844C142.24 147.541 141.885 147.295 141.445 147.105C141.004 146.916 140.528 146.75 140.017 146.608L138.227 146.097C137.091 145.77 136.191 145.304 135.528 144.697C134.866 144.091 134.534 143.298 134.534 142.318C134.534 141.504 134.754 140.794 135.195 140.188C135.64 139.577 136.236 139.103 136.984 138.767C137.737 138.426 138.578 138.256 139.506 138.256C140.443 138.256 141.277 138.424 142.006 138.76C142.735 139.091 143.313 139.546 143.739 140.124C144.17 140.701 144.397 141.357 144.42 142.091H142.716Z" fill="#0E0E0F"/>
<path d="M156.278 138.091V139.511H150.625V138.091H156.278ZM152.273 135.477H153.949V145.875C153.949 146.348 154.018 146.704 154.155 146.94C154.297 147.172 154.477 147.329 154.695 147.409C154.917 147.485 155.152 147.523 155.398 147.523C155.582 147.523 155.734 147.513 155.852 147.494C155.971 147.471 156.065 147.452 156.136 147.438L156.477 148.943C156.364 148.986 156.205 149.028 156.001 149.071C155.798 149.118 155.54 149.142 155.227 149.142C154.754 149.142 154.29 149.04 153.835 148.837C153.385 148.633 153.011 148.323 152.713 147.906C152.42 147.49 152.273 146.964 152.273 146.33V135.477Z" fill="#0E0E0F"/>
<path d="M167.966 146.227C166.981 146.227 166.117 145.993 165.374 145.524C164.635 145.055 164.057 144.4 163.641 143.557C163.229 142.714 163.023 141.729 163.023 140.602C163.023 139.466 163.229 138.474 163.641 137.626C164.057 136.779 164.635 136.121 165.374 135.652C166.117 135.183 166.981 134.949 167.966 134.949C168.951 134.949 169.813 135.183 170.551 135.652C171.295 136.121 171.872 136.779 172.284 137.626C172.701 138.474 172.909 139.466 172.909 140.602C172.909 141.729 172.701 142.714 172.284 143.557C171.872 144.4 171.295 145.055 170.551 145.524C169.813 145.993 168.951 146.227 167.966 146.227ZM167.966 144.722C168.714 144.722 169.33 144.53 169.812 144.146C170.295 143.763 170.653 143.259 170.885 142.634C171.117 142.009 171.233 141.331 171.233 140.602C171.233 139.873 171.117 139.194 170.885 138.564C170.653 137.934 170.295 137.425 169.812 137.037C169.33 136.649 168.714 136.455 167.966 136.455C167.218 136.455 166.602 136.649 166.119 137.037C165.636 137.425 165.279 137.934 165.047 138.564C164.815 139.194 164.699 139.873 164.699 140.602C164.699 141.331 164.815 142.009 165.047 142.634C165.279 143.259 165.636 143.763 166.119 144.146C166.602 144.53 167.218 144.722 167.966 144.722Z" fill="#0E0E0F"/>
<path d="M179.534 142V131.091H181.153V132.739H181.267C181.466 132.199 181.826 131.761 182.347 131.425C182.867 131.089 183.455 130.92 184.108 130.92C184.231 130.92 184.385 130.923 184.57 130.928C184.754 130.932 184.894 130.939 184.989 130.949V132.653C184.932 132.639 184.802 132.618 184.598 132.589C184.399 132.556 184.188 132.54 183.966 132.54C183.436 132.54 182.962 132.651 182.545 132.874C182.134 133.091 181.807 133.394 181.565 133.783C181.329 134.166 181.21 134.604 181.21 135.097V142H179.534Z" fill="#0E0E0F"/>
<path d="M196.108 139.227C195.057 139.227 194.15 138.995 193.388 138.531C192.63 138.062 192.045 137.409 191.634 136.571C191.226 135.728 191.023 134.748 191.023 133.631C191.023 132.513 191.226 131.528 191.634 130.676C192.045 129.819 192.618 129.152 193.352 128.673C194.091 128.19 194.953 127.949 195.938 127.949C196.506 127.949 197.067 128.044 197.621 128.233C198.175 128.422 198.679 128.73 199.134 129.156C199.588 129.578 199.95 130.136 200.22 130.832C200.49 131.528 200.625 132.385 200.625 133.403V134.114H192.216V132.665H198.92C198.92 132.049 198.797 131.5 198.551 131.017C198.31 130.534 197.964 130.153 197.514 129.874C197.069 129.594 196.544 129.455 195.938 129.455C195.27 129.455 194.692 129.62 194.205 129.952C193.722 130.278 193.35 130.705 193.089 131.23C192.829 131.756 192.699 132.319 192.699 132.92V133.886C192.699 134.71 192.841 135.409 193.125 135.982C193.414 136.55 193.814 136.983 194.325 137.281C194.837 137.575 195.431 137.722 196.108 137.722C196.548 137.722 196.946 137.66 197.301 137.537C197.661 137.409 197.971 137.22 198.232 136.969C198.492 136.713 198.693 136.396 198.835 136.017L200.455 136.472C200.284 137.021 199.998 137.504 199.595 137.92C199.193 138.332 198.696 138.654 198.104 138.886C197.512 139.114 196.847 139.227 196.108 139.227Z" fill="#0E0E0F"/>
</svg>
