<svg width="266" height="278" viewBox="0 0 266 278" fill="none" xmlns="http://www.w3.org/2000/svg">
<path d="M124.745 150.451L124.717 150.309L124.579 150.263L118.791 148.333L124.732 120.11L138.533 102.859L145.836 109.189L145.962 109.298L146.112 109.224L159.958 102.3L182.288 122.645L185.717 131.461L179.958 139.139L165.16 126.808L164.973 126.652L164.812 126.835L133.482 162.641L125.729 155.372L124.745 150.451Z" fill="#F5F5F5" stroke="#A0A0A0" stroke-width="0.5"/>
<path d="M175.248 18.969L174.786 15.2711L181.482 15.7494L181.482 15.7497L181.494 15.7499L202.994 16.2499L203.056 16.2514L203.112 16.2236L207.875 13.8422L210.77 20.5985L210.775 20.609L210.78 20.6191L217.149 32.3766L207.903 36.2696L207.903 36.2695L207.895 36.273L201.395 39.273L201.377 39.2816L201.36 39.293L185.86 49.793L185.821 49.8191L185.795 49.8572L177.965 61.1119L175.177 58.3232L175.019 58.165L174.844 58.3048L172.548 60.1413L168.702 54.853L168.627 54.75H168.5H166.104L162.23 50.8767L161.27 46.0762L173.683 32.6699L173.759 32.5882L173.749 32.4774L172.76 21.594L175.177 19.1768L175.263 19.0903L175.248 18.969Z" fill="#F5F5F5" stroke="#A0A0A0" stroke-width="0.5"/>
<path d="M130.5 27L106.5 4L103 0H171L170.5 13L166 15.5L156 32L152 40.5L154 61L161 76.5L168 84L182.5 90L189.5 86L192.5 92L192 95.5L212.5 108.5L214.5 107.5L232 124.5L232.5 120L226.5 110L214.5 94.5L198 79.5L194.5 74L197 70L204 74L207 72.5L209 63.5L211.5 66V68.5L218.5 79.5L224.5 89L229 97L235 102L239 111.5L243 118L247.5 123L250.5 124L257 120.5L261 115L262 110L266 106.925V241L255 226.5L254.5 217.5L246.5 188L243.5 176.5L230 154L217 138L205.5 126L186.5 110L150 86.5L136.5 74.5L132 40L130.5 27Z" fill="#92C8DE"/>
<path d="M208.756 63.4458L206.782 72.3296L204.008 73.7166L197.357 69.9158L198.208 68.6387L198.4 68.3501L198.066 68.2588L192.566 66.7588L192.54 66.7519L192.514 66.7504L183.602 66.2553L178.331 61.4626L186.179 50.1809L201.623 39.7184L208.101 36.7288L217.437 32.7978L225.318 41.1713L225.333 41.1871L225.35 41.2L231.323 45.6797L239.783 56.6277L242.761 63.578L245.756 76.5562L245.757 76.5606L247.757 84.5606L247.765 84.591L247.78 84.6185L251.275 91.1095L254.771 99.1002L254.787 99.1378L254.815 99.1682L259.785 104.635L261.741 109.526L260.764 114.899L256.831 120.307L250.477 123.729L247.642 122.784L243.201 117.85L239.223 111.385L235.23 101.903L235.207 101.847L235.16 101.808L229.194 96.8363L223.716 87.3747L223.716 87.3747L223.712 87.3675L218.712 79.3675L218.708 79.361L218.703 79.3547L216.209 75.8628L211.75 68.4308V66V65.8964L211.677 65.8232L209.177 63.3232L208.855 63.0012L208.756 63.4458Z" fill="#F5F5F5" stroke="#A0A0A0" stroke-width="0.5"/>
<path d="M232.242 120.056L231.808 123.965L214.674 107.321L214.547 107.197L214.388 107.276L212.515 108.213L192.27 95.3754L192.747 92.0354L192.759 91.958L192.724 91.8882L189.816 86.073L197.986 79.8253L214.316 94.6703L226.293 110.141L232.242 120.056Z" fill="#F5F5F5" stroke="#A0A0A0" stroke-width="0.5"/>
<path d="M172.656 60.6952L174.981 58.835L177.823 61.6768L177.823 61.677L177.832 61.685L183.332 66.685L183.398 66.7447L183.486 66.7496L192.46 67.2481L197.607 68.6519L194.289 73.8658L194.204 74L194.289 74.1342L197.666 79.4407L189.361 85.7912L182.482 89.7221L168.146 83.7897L161.211 76.3596L154.245 60.9347L152.255 40.5442L156.221 32.1183L166.179 15.6863L170.506 13.2826L174.269 15.1638L174.737 18.9097L172.323 21.3232L172.24 21.406L172.251 21.5226L173.241 32.4118L160.817 45.8301L160.73 45.9238L160.755 46.049L161.755 51.049L161.77 51.1233L161.823 51.1768L165.823 55.1768L165.896 55.25H166H168.373L172.298 60.647L172.452 60.8587L172.656 60.6952Z" fill="#F5F5F5" stroke="#A0A0A0" stroke-width="0.5"/>
<path d="M92.2662 213.088L92.3296 213.256L92.5086 213.25L106.832 212.756L122.662 252.825L98.493 258.744L82.602 255.765L67.8316 244.933L73.7144 235.129L73.8361 234.926L73.6402 234.793L58.1402 224.293L58.0767 224.25H58H51.049L38.0999 218.974L85.365 194.85L92.2662 213.088Z" fill="#F5F5F5" stroke="#A0A0A0" stroke-width="0.5"/>
<path d="M53.7913 157.638L53.7986 157.649L53.807 157.659L74.7823 183.129L75.7679 185.593L75.7882 185.644L75.8281 185.681L85.0712 194.438L37.4731 218.733L28.6928 216.294L25.2578 206.48L27.246 195.545L27.271 195.407L27.1665 195.314L13.3836 183.007L24.6592 173.693L24.8396 173.544L24.7029 173.354L15.7029 160.854L15.6943 160.842L15.6843 160.831L4.77332 148.928L11.1866 121.302L45.9653 129.629L39.3373 135.31L39.17 135.454L39.2913 135.638L53.7913 157.638Z" fill="#F5F5F5" stroke="#A0A0A0" stroke-width="0.5"/>
<path d="M214.65 155.7L214.811 155.579L214.727 155.396L209.315 143.587L216.951 138.337L229.795 154.144L243.269 176.601L247.759 192.066L254.252 217.538L254.743 226.383L250.428 229.739L234.25 227.778V223V222.971L234.243 222.943L230.76 208.012L231.737 205.079L231.768 204.987L231.728 204.898L229.728 200.398L229.711 200.359L229.681 200.328L220.86 191.017L228.665 184.188L228.79 184.079L228.737 183.921L227.237 179.421L227.22 179.37L227.184 179.331L206.156 156.346L212.465 157.247L212.567 157.262L212.65 157.2L214.65 155.7Z" fill="#F5F5F5" stroke="#A0A0A0" stroke-width="0.5"/>
<path d="M136.677 77.8232L130.863 72.0095L135.319 67.9994L136.253 74.5354L136.265 74.626L136.334 74.6869L149.834 86.6869L149.848 86.6997L149.865 86.7102L186.351 110.202L205.329 126.183L216.616 137.961L208.966 143.22L201.151 140.29L194.694 132.342L194.671 132.314L194.641 132.293L183.704 124.836L182.732 122.407L182.711 122.354L182.668 122.315L160.168 101.815L160.042 101.7L159.888 101.776L146.038 108.702L138.898 102.514L140.65 101.2L140.762 101.116L140.749 100.977L139.754 90.0343L141.234 86.0878L141.275 85.9788L141.218 85.8774L136.718 77.8774L136.701 77.8475L136.677 77.8232Z" fill="#F5F5F5" stroke="#A0A0A0" stroke-width="0.5"/>
<path d="M81.54 90.2488L74.8346 87.854L79.2298 77.5985L79.25 77.5513V77.5V70V69.8887L79.1672 69.8142L74.285 65.4201L75.7204 60.6353L97.0003 40.3451L106.79 49.6458L108.204 52.9429L103.323 57.8232L103.146 58L103.323 58.1768L110.323 65.1768L110.343 65.1962L110.366 65.2109L126.866 75.7109L127.035 75.8186L127.177 75.6768L130.5 72.3536L136.299 78.1525L140.725 86.0212L139.266 89.9122L139.246 89.9657L139.251 90.0226L140.238 100.884L138.542 102.156L132.194 94.3424L132.162 94.3032L132.118 94.2794L124.618 90.2794L124.58 90.2594L124.538 90.2529L118.038 89.2529L118.016 89.2495L117.993 89.2501L81.54 90.2488Z" fill="#F5F5F5" stroke="#A0A0A0" stroke-width="0.5"/>
<path d="M33.4356 86.2584L18.8065 90.1595L22.7297 65.1489L32.6362 58.7096L32.6909 58.6741L32.7212 58.6164L42.6724 39.7093L62.5718 33.7395L62.6346 33.7206L62.6801 33.6734L75.5096 20.3504L96.6354 40.0022L75.3275 60.3191L75.2796 60.3647L75.2605 60.4282L73.7605 65.4282L73.715 65.5799L73.8328 65.6858L78.75 70.1113V77.4487L74.3643 87.6821L66.5878 84.7659L66.5398 84.7479L66.4886 84.7503L33.4886 86.2503L33.4617 86.2515L33.4356 86.2584Z" fill="#F5F5F5" stroke="#A0A0A0" stroke-width="0.5"/>
<path d="M137.612 223.724L137.651 223.704L137.681 223.672L147.597 213.26L157.866 214.238L162.3 220.15L162.458 220.361L162.66 220.192L171.453 212.864L197.645 249.434L159.973 274.219L126.192 260.309L115.818 234.62L137.612 223.724Z" fill="#F5F5F5" stroke="#A0A0A0" stroke-width="0.5"/>
<path d="M171.155 212.462L162.542 219.639L158.2 213.85L158.134 213.762L158.024 213.751L147.524 212.751L147.403 212.74L147.319 212.828L137.349 223.296L115.634 234.153L107.25 212.453V163.623L118.153 155.198L118.241 155.13L118.249 155.019L118.725 148.838L124.283 150.691L125.255 155.549L125.271 155.628L125.329 155.682L133.314 163.168L171.155 212.462Z" fill="#C6DDEE" stroke="#A0A0A0" stroke-width="0.5"/>
<path d="M62.7541 103.955L62.7371 104.047L62.785 104.128L72.2337 120.041L68.8138 134.698L11.3027 120.816L18.7074 90.7034L33.5383 86.7485L66.1972 85.264L62.7541 103.955Z" fill="#F5F5F5" stroke="#A0A0A0" stroke-width="0.5"/>
<path d="M106.847 163.302L106.75 163.377V163.5V212.258L92.6704 212.744L85.7338 194.412L85.7135 194.358L85.6719 194.319L76.2118 185.356L75.2321 182.907L75.2177 182.871L75.193 182.841L54.2014 157.351L39.83 135.546L46.5653 129.773L68.9374 135.242L68.9406 135.243L118.235 148.687L117.759 154.87L106.847 163.302Z" fill="#F5F5F5" stroke="#A0A0A0" stroke-width="0.5"/>
<path d="M107.23 49.4015L107.209 49.3533L107.171 49.3175L75.9295 20.0597L106.456 4.30406L130.263 27.1189L135.236 67.4048L126.97 75.1847L110.657 64.8038L103.854 58L108.677 53.1768L108.796 53.0571L108.73 52.9015L107.23 49.4015Z" fill="#F5F5F5" stroke="#A0A0A0" stroke-width="0.5"/>
<path d="M214.852 236.799L198.056 249.149L171.822 212.52L190.184 192.67L190.25 192.598V192.5V178.079L205.525 156.398L226.78 179.63L228.21 183.921L220.335 190.812L220.14 190.983L220.319 191.172L229.289 200.641L231.232 205.013L230.263 207.921L230.24 207.988L230.257 208.057L233.75 223.029V227.842L214.893 236.774L214.871 236.784L214.852 236.799Z" fill="#F5F5F5" stroke="#A0A0A0" stroke-width="0.5"/>
<path d="M124.305 119.844L124.268 119.89L124.255 119.948L118.31 148.189L69.2982 134.822L72.7435 120.057L72.7663 119.959L72.715 119.872L63.2629 103.953L66.6922 85.3367L81.4139 90.7347L81.4589 90.7512L81.5068 90.7499L117.984 89.7505L124.42 90.7406L131.838 94.6968L138.179 102.501L124.305 119.844Z" fill="#F5F5F5" stroke="#A0A0A0" stroke-width="0.5"/>
<path d="M186.233 131.41L184.021 125.658L194.329 132.686L200.806 140.658L200.849 140.71L200.912 140.734L208.816 143.698L214.189 155.421L212.433 156.738L205.535 155.753L205.384 155.731L205.296 155.856L189.796 177.856L189.75 177.921V178V192.402L171.518 212.113L133.823 163.01L165.027 127.348L179.84 139.692L180.042 139.861L180.2 139.65L186.2 131.65L186.283 131.539L186.233 131.41Z" fill="#F5F5F5" stroke="#A0A0A0" stroke-width="0.5"/>
</svg>
